<?xml version="1.0" encoding="utf-8"?>
<!-- Generator: Adobe Illustrator 20.1.0, SVG Export Plug-In . SVG Version: 6.00 Build 0)  -->
<svg version="1.1" id="Layer_1" xmlns="http://www.w3.org/2000/svg" xmlns:xlink="http://www.w3.org/1999/xlink" x="0px" y="0px"
	 viewBox="0 0 38.3 35.2" style="enable-background:new 0 0 38.3 35.2;" xml:space="preserve">
<style type="text/css">
	.st0{display:none;}
	.st1{display:inline;}
	.st2{fill:none;stroke:#2AC8E3;stroke-width:2;stroke-linecap:round;stroke-linejoin:round;}
	.st3{fill:#2AC8E3;}
</style>
<title>Asset 8</title>
<g id="Layer_2" class="st0">
	<g id="Слой_28" class="st1">
		<path class="st2" d="M3,7.3h32.3c1.1,0,2,0.9,2,2v22.9c0,1.1-0.9,2-2,2H3c-1.1,0-2-0.9-2-2V9.3C1,8.2,1.9,7.3,3,7.3z"/>
		<path class="st2" d="M37.3,12.1l-2.6,2.7c-1.5,1.5-3.3,2.6-5.3,3.3l-6.3,2v-1.6c0-0.9-0.7-1.6-1.6-1.6h-4.7
			c-0.9,0-1.6,0.7-1.6,1.6V20l-6.4-2c-2-0.6-3.8-1.8-5.3-3.3L1,12.1"/>
		<path class="st2" d="M13.1,1h12.2c0.6,0,1,0.4,1,1v5.3l0,0H12.1l0,0V2C12.1,1.4,12.5,1,13.1,1z"/>
		<path class="st2" d="M16.2,16.8h5.9c0.6,0,1,0.4,1,1v4.3c0,0.6-0.4,1-1,1h-5.9c-0.6,0-1-0.4-1-1v-4.3
			C15.2,17.3,15.7,16.8,16.2,16.8z"/>
	</g>
</g>
<g id="Layer_2_1_">
	<g id="Слой_28_1_">
		<path class="st2" d="M9.4,1.2H29c0.5,0,0.9,0.4,0.9,0.9v31.1c0,0.5-0.4,0.9-0.9,0.9H9.4c-0.5,0-0.9-0.4-0.9-0.9V2.1
			C8.4,1.6,8.9,1.2,9.4,1.2z"/>
		<line class="st2" x1="8.4" y1="26.9" x2="29.9" y2="26.9"/>
		<line class="st2" x1="8.4" y1="5.5" x2="29.9" y2="5.5"/>
		<circle class="st3" cx="19.2" cy="30.5" r="1.4"/>
	</g>
</g>
</svg>
