<svg xmlns="http://www.w3.org/2000/svg" viewBox="0 0 38.35 35.19"><title>Asset 8</title><g id="Layer_2" data-name="Layer 2"><g id="Слой_28" data-name="Слой 28"><rect x="1" y="7.32" width="36.35" height="26.87" rx="2" ry="2" fill="none" stroke="#2ac8e3" stroke-linecap="round" stroke-linejoin="round" stroke-width="2"/><path d="M37.35,12.06l-2.59,2.67A12.65,12.65,0,0,1,29.47,18l-6.34,2V18.39a1.58,1.58,0,0,0-1.58-1.58H16.81a1.58,1.58,0,0,0-1.58,1.58V20L8.85,18a12.64,12.64,0,0,1-5.3-3.27L1,12.06" fill="none" stroke="#2ac8e3" stroke-linecap="round" stroke-linejoin="round" stroke-width="2"/><path d="M13.06,1H25.29a1,1,0,0,1,1,1V7.32a0,0,0,0,1,0,0H12.06a0,0,0,0,1,0,0V2A1,1,0,0,1,13.06,1Z" fill="none" stroke="#2ac8e3" stroke-linecap="round" stroke-linejoin="round" stroke-width="2"/><rect x="15.23" y="16.81" width="7.9" height="6.32" rx="1" ry="1" fill="none" stroke="#2ac8e3" stroke-linecap="round" stroke-linejoin="round" stroke-width="2"/></g></g></svg>