<svg xmlns="http://www.w3.org/2000/svg" viewBox="0 0 38.4 38.06"><title>Asset 9</title><g id="Layer_2" data-name="Layer 2"><g id="Слой_28" data-name="Слой 28"><path d="M32,1.93,25.69,8.25a3.18,3.18,0,0,0,0,4.47,3.17,3.17,0,0,0,4.47,0L36.47,6.4A9.48,9.48,0,1,1,32,1.93Z" fill="none" stroke="#2ac8e3" stroke-linecap="round" stroke-linejoin="round" stroke-width="2"/><path d="M24.2,19.19,7.35,36a3.16,3.16,0,1,1-4.47-4.47L19.54,14.91" fill="none" stroke="#2ac8e3" stroke-miterlimit="10" stroke-width="2"/><path d="M23,20.41,34.24,31.66a3.16,3.16,0,1,1-4.46,4.47L18.53,24.88" fill="none" stroke="#2ac8e3" stroke-linecap="round" stroke-linejoin="round" stroke-width="2"/><line x1="16.66" y1="18.31" x2="9.57" y2="11.21" fill="none" stroke="#2ac8e3" stroke-linecap="round" stroke-linejoin="round" stroke-width="2"/><polygon points="3.23 2.64 1 4.88 4.12 10.23 8.41 12.29 10.65 10.06 8.59 5.76 3.23 2.64" fill="none" stroke="#2ac8e3" stroke-linecap="round" stroke-linejoin="round" stroke-width="2"/></g></g></svg>