<svg xmlns="http://www.w3.org/2000/svg" viewBox="0 0 55.3 70.4"><title>ico-1l</title><g id="Layer_2" data-name="Layer 2"><g id="Слой_26" data-name="Слой 26"><path d="M22.06,42.95A14.13,14.13,0,1,0,7.94,28.82,14.14,14.14,0,0,0,22.06,42.95Zm0-26.46A12.34,12.34,0,1,1,9.73,28.82,12.35,12.35,0,0,1,22.06,16.48Z" fill="#51b0f9" stroke="#51b0f9" stroke-miterlimit="10"/><line x1="22.06" y1="21.23" x2="22.06" y2="36.4" fill="none" stroke="#51b0f9" stroke-linecap="round" stroke-linejoin="round" stroke-width="3.4"/><line x1="29.65" y1="28.81" x2="14.48" y2="28.81" fill="none" stroke="#51b0f9" stroke-linecap="round" stroke-linejoin="round" stroke-width="3.4"/><rect x="1.7" y="1.7" width="40.97" height="55.35" rx="1" ry="1" fill="none" stroke="#878986" stroke-linecap="round" stroke-linejoin="round" stroke-width="3.4"/><path d="M48.14,13.35h2.73a2.84,2.84,0,0,1,2.73,2.91V65.79a2.84,2.84,0,0,1-2.73,2.91H15.36a2.84,2.84,0,0,1-2.73-2.91V62.87" fill="none" stroke="#878986" stroke-linecap="round" stroke-linejoin="round" stroke-width="3.4"/></g></g></svg>