<svg xmlns="http://www.w3.org/2000/svg" viewBox="0 0 61.08 64.07"><title>ico-1r</title><g id="Layer_2" data-name="Layer 2"><g id="Слой_24" data-name="Слой 24"><path d="M56.76,63.57h.58c2.06,0,3.74-1.13,3.74-2.51V23.42s0-.05,0-.08,0,0,0-.07L58.46,12.6a1.64,1.64,0,0,0-2.82,0L53,23.26s0,0,0,.07,0,.05,0,.08V61.06C53,62.44,54.7,63.57,56.76,63.57ZM58.22,55H55.88V24.38h2.33Zm0,6.11c0,.33-.39.59-.88.59h-.58c-.48,0-.88-.27-.88-.59V56.88h2.33ZM57.05,18.7,58,22.46H56.14Z" fill="#878986"/><path d="M1.46,63.57H47.64a1,1,0,0,0,1-1V16.32a1,1,0,0,0-.28-.68L33.47.78A1,1,0,0,0,32.79.5H1.46a1,1,0,0,0-1,1V62.61A1,1,0,0,0,1.46,63.57ZM33.75,3.78,45.32,15.36H33.74ZM2.42,2.42h29.4v13.9a1,1,0,0,0,1,1h13.9V61.65H2.42Z" fill="#878986" stroke="#878986" stroke-miterlimit="10"/><path d="M28.1,25.26H8.93a1.12,1.12,0,0,0-1.22,1,1.12,1.12,0,0,0,1.22,1H28.1a1.12,1.12,0,0,0,1.22-1A1.12,1.12,0,0,0,28.1,25.26Z" fill="#51b0f9" stroke="#51b0f9" stroke-miterlimit="10"/><path d="M35,32.12h-26a1,1,0,1,0,0,1.92H35a1,1,0,1,0,0-1.92Z" fill="#51b0f9" stroke="#51b0f9" stroke-miterlimit="10"/><path d="M35,39.85h-26a1,1,0,1,0,0,1.92H35a1,1,0,1,0,0-1.92Z" fill="#51b0f9" stroke="#51b0f9" stroke-miterlimit="10"/></g></g></svg>