<svg xmlns="http://www.w3.org/2000/svg" viewBox="0 0 58.78 70.82"><title>ico-3l</title><g id="Layer_2" data-name="Layer 2"><g id="Слой_27" data-name="Слой 27"><path d="M42.21,49.4h-3s0-2.39,0-2.41A.52.52,0,0,0,39,46.6H18.85a.77.77,0,0,0-.15.39s0,2.38,0,2.4h-3s0-2.38,0-2.4a3.21,3.21,0,0,1,3.17-3.18H39A3.21,3.21,0,0,1,42.21,47S42.21,49.36,42.21,49.4Z" fill="#878986"/><path d="M20.58,19.09a1.5,1.5,0,0,1-1.45-1,26.82,26.82,0,0,1,.22-16.53A1.54,1.54,0,0,1,21.24.63a1.38,1.38,0,0,1,1,1.75A24.22,24.22,0,0,0,22,17.31,1.38,1.38,0,0,1,21,19,1.62,1.62,0,0,1,20.58,19.09Z" fill="#51b0f9"/><path d="M28,45.16h-3V34.83A29.17,29.17,0,0,1,10,9.74,52.53,52.53,0,0,1,11.56.68.89.89,0,0,1,12.43,0H46.35a.89.89,0,0,1,.87.68A52.52,52.52,0,0,1,48.8,9.74a29.17,29.17,0,0,1-15,25.09V44.91h-3V33.24l.75-.4a26.47,26.47,0,0,0,14.2-23.1,25.14,25.14,0,0,0-1-7H14a25.13,25.13,0,0,0-1,7,26.47,26.47,0,0,0,14.21,23.1l.75.4Z" fill="#878986"/><path d="M40.2,29.25a1.51,1.51,0,0,1-1.43-.94,1.37,1.37,0,0,1,.94-1.77,23.19,23.19,0,0,0,16-20.75h-9a1.46,1.46,0,0,1-1.51-1.39A1.46,1.46,0,0,1,46.76,3H57.39a1.39,1.39,0,0,1,1.39,1.4h0A26.05,26.05,0,0,1,40.69,29.18,1.63,1.63,0,0,1,40.2,29.25Z" fill="#878986"/><path d="M18.59,29.25a1.64,1.64,0,0,1-.49-.08A26.06,26.06,0,0,1,0,4.41H0A1.39,1.39,0,0,1,1.39,3H12a1.46,1.46,0,0,1,1.51,1.39A1.46,1.46,0,0,1,12,5.79h-9a23.19,23.19,0,0,0,16,20.75A1.37,1.37,0,0,1,20,28.31,1.51,1.51,0,0,1,18.59,29.25Z" fill="#878986"/><path d="M47.86,70.82H10a.89.89,0,0,1-.89-.89V63.46a.89.89,0,0,1,.89-.89H47.86a.89.89,0,0,1,.89.89v6.47A.89.89,0,0,1,47.86,70.82ZM12.16,68.24H45.73V65.36H12.16Z" fill="#878986"/><path d="M47.42,65.36H10.47V50.14a.9.9,0,0,1,.9-.9H46.52a.9.9,0,0,1,.9.9ZM13.5,62.57h30.9V52H13.5Z" fill="#878986"/><path d="M38.67,55.93h-20a1,1,0,1,0,0,2h20a1,1,0,1,0,0-2Z" fill="#51b0f9" stroke="#51b0f9" stroke-miterlimit="10"/></g></g></svg>