<svg xmlns="http://www.w3.org/2000/svg" viewBox="0 0 53.09 55.92"><title>ico-4l</title><g id="Layer_2" data-name="Layer 2"><g id="Слой_27" data-name="Слой 27"><path d="M40.95,25.51H21.39c-.72,0-1.31.35-1.31.79s.59.79,1.31.79H40.95c.72,0,1.31-.35,1.31-.79S41.67,25.51,40.95,25.51Z" fill="#878986" stroke="#878986" stroke-miterlimit="10"/><path d="M46.45,35.59h-26a1.06,1.06,0,1,0,0,2.05h26a1.06,1.06,0,1,0,0-2.05Z" fill="#878986" stroke="#878986" stroke-miterlimit="10"/><polyline points="9.17 25.29 11.77 27.89 15.66 23.99" fill="none" stroke="#51b0f9" stroke-linecap="round" stroke-linejoin="round" stroke-width="2.6"/><polyline points="9.17 34.92 11.77 37.52 15.66 33.62" fill="none" stroke="#51b0f9" stroke-linecap="round" stroke-linejoin="round" stroke-width="2.6"/><path d="M45.91,4.79h-2V1.33a.83.83,0,1,0-1.66,0V4.79H35.62V1.33a.83.83,0,1,0-1.66,0V4.79H27.38V1.33a.83.83,0,0,0-1.66,0V4.79H19.13V1.33a.83.83,0,1,0-1.66,0V4.79H10.89V1.33a.83.83,0,0,0-1.66,0V4.79h-2A6.69,6.69,0,0,0,.5,11.47V48.74a6.69,6.69,0,0,0,6.68,6.68H45.91a6.69,6.69,0,0,0,6.68-6.68V11.47A6.69,6.69,0,0,0,45.91,4.79Zm5,9.52H6.87a.83.83,0,1,0,0,1.66H50.93V48.74a5,5,0,0,1-5,5H7.18a5,5,0,0,1-5-5V11.47a5,5,0,0,1,5-5h2V9.91a.83.83,0,0,0,1.66,0V6.45h6.58V9.91a.83.83,0,0,0,1.66,0V6.45h6.58V9.91a.83.83,0,0,0,1.66,0V6.45H34V9.91a.83.83,0,0,0,1.66,0V6.45H42.2V9.91a.83.83,0,0,0,1.66,0V6.45h2a5,5,0,0,1,5,5Z" fill="#878986" stroke="#878986" stroke-miterlimit="10"/></g></g></svg>