<svg xmlns="http://www.w3.org/2000/svg" viewBox="0 0 69.23 56.75"><title>ico-2r</title><g id="Layer_2" data-name="Layer 2"><g id="Слой_25" data-name="Слой 25"><path d="M36,16.08a3.1,3.1,0,0,1,0,4.37L34.4,21.93A4.47,4.47,0,0,0,33,25.21a.77.77,0,0,0,1.54,0A3,3,0,0,1,35.49,23l1.59-1.48a4.63,4.63,0,0,0,0-6.55,4.63,4.63,0,0,0-7.9,3.27.77.77,0,0,0,1.54,0A3.09,3.09,0,0,1,36,16.08Z" fill="#51b0f9" stroke="#51b0f9" stroke-miterlimit="10"/><path d="M34.63,30.42a1.16,1.16,0,1,0-.82.34A1.12,1.12,0,0,0,34.63,30.42Z" fill="#51b0f9" stroke="#51b0f9" stroke-miterlimit="10"/><path d="M47.76,21.28A14.14,14.14,0,1,0,33.63,35.42,14.15,14.15,0,0,0,47.76,21.28Zm-26.69,0A12.55,12.55,0,1,1,33.63,33.83,12.56,12.56,0,0,1,21.08,21.28Z" fill="#51b0f9" stroke="#51b0f9" stroke-miterlimit="10"/><path d="M63.48.5H5.74A5.25,5.25,0,0,0,.5,5.74V44.61a5.25,5.25,0,0,0,5.24,5.24H32.9v4.53h-17a.93.93,0,0,0,0,1.87H53.34a.93.93,0,0,0,0-1.87H34.77V49.85H63.48a5.25,5.25,0,0,0,5.24-5.24V5.74A5.25,5.25,0,0,0,63.48.5ZM2.37,5.74A3.38,3.38,0,0,1,5.74,2.37H63.48a3.38,3.38,0,0,1,3.38,3.38V38.24c0,1.86-1.52,2.53-3.38,2.53H5.74c-1.86,0-3.38-.67-3.38-2.53ZM63.48,48H5.74a3.38,3.38,0,0,1-3.38-3.38v-2.4c.92.78,2.08.42,3.38.42H63.48c1.29,0,2.46.36,3.38-.42v2.4A3.38,3.38,0,0,1,63.48,48Z" fill="#878986" stroke="#878986" stroke-miterlimit="10"/></g></g></svg>