<svg xmlns="http://www.w3.org/2000/svg" viewBox="0 0 60.4 60.31"><title>ico-3r</title><g id="Layer_2" data-name="Layer 2"><g id="Слой_27" data-name="Слой 27"><path d="M22.13,28.59c8.44-2,15.41-12.77,16.9-24.86C39.4.66,45.15.21,46.75,5.94c1.81,6.47-1.1,12.14-3.31,17.67h11" fill="none" stroke="#878986" stroke-linecap="round" stroke-linejoin="round" stroke-width="3"/><path d="M54.48,23.6A4.42,4.42,0,0,1,58.9,28h0a4.42,4.42,0,0,1-4.42,4.42h-1.1" fill="none" stroke="#878986" stroke-linecap="round" stroke-linejoin="round" stroke-width="3"/><path d="M51.17,41.27c2.44,0,5.29,2,5.29,4.42h0c0,2.44-1.48,4.14-5.29,4.42h-1.1" fill="none" stroke="#878986" stroke-linecap="round" stroke-linejoin="round" stroke-width="3"/><path d="M53.38,32.43a4.42,4.42,0,0,1,4.42,4.42h0a4.42,4.42,0,0,1-4.42,4.42H51.17" fill="none" stroke="#878986" stroke-linecap="round" stroke-linejoin="round" stroke-width="3"/><path d="M50.07,57.83H34.62c-4.42,0-12.49-4.06-12.49-4.06" fill="none" stroke="#878986" stroke-linecap="round" stroke-linejoin="round" stroke-width="3"/><path d="M49,50.1h.55A3.86,3.86,0,0,1,53.38,54h0a3.86,3.86,0,0,1-3.86,3.86H47.86" fill="none" stroke="#878986" stroke-linecap="round" stroke-linejoin="round" stroke-width="3"/><rect x="1.5" y="23.55" width="20.63" height="35.26" rx="1" ry="1" fill="none" stroke="#51b0f9" stroke-linecap="round" stroke-linejoin="round" stroke-width="3"/><path d="M13.25,45a4.58,4.58,0,1,0,4.58,4.58A4.58,4.58,0,0,0,13.25,45Zm0,7.27a2.69,2.69,0,1,1,2.69-2.69A2.69,2.69,0,0,1,13.25,52.24Z" fill="#878986" stroke="#878986" stroke-miterlimit="10"/></g></g></svg>