<svg xmlns="http://www.w3.org/2000/svg" viewBox="0 0 75.08 57.31"><title>ico-4r</title><g id="Layer_2" data-name="Layer 2"><g id="Слой_25" data-name="Слой 25"><path d="M20.17,51.87a4.94,4.94,0,0,0,4.93,4.94H69.64a4.94,4.94,0,0,0,4.94-4.94V22.08a4.94,4.94,0,0,0-4.94-4.94H54.91V5.44A4.94,4.94,0,0,0,50,.5H5.44A4.94,4.94,0,0,0,.5,5.44v29.8a4.94,4.94,0,0,0,4.94,4.94H20.17ZM72.69,33.32H22.06V28.43H72.69Zm-3,21.6H25.1a3,3,0,0,1-3-3V35.21H72.69V51.87A3,3,0,0,1,69.64,54.92Zm3-32.84v4.46H22.06V22.08a3,3,0,0,1,3-3H69.64A3,3,0,0,1,72.69,22.08ZM5.44,38.28a3,3,0,0,1-3-3V5.44a3,3,0,0,1,3-3H50a3,3,0,0,1,3,3V17.14H25.1a4.94,4.94,0,0,0-4.93,4.94v6.35h-2a.95.95,0,1,0,0,1.89h2v8Z" fill="#878986" stroke="#878986" stroke-miterlimit="10"/><path d="M33.7,39H25.82a1,1,0,1,0,0,1.89H33.7a1,1,0,1,0,0-1.89Z" fill="#51b0f9" stroke="#51b0f9" stroke-miterlimit="10"/><path d="M47.21,39H39.33a1,1,0,1,0,0,1.89h7.88a1,1,0,1,0,0-1.89Z" fill="#51b0f9" stroke="#51b0f9" stroke-miterlimit="10"/><path d="M60.71,39H52.83a1,1,0,1,0,0,1.89h7.88a1,1,0,1,0,0-1.89Z" fill="#51b0f9" stroke="#51b0f9" stroke-miterlimit="10"/><path d="M64.93,43.24a4.58,4.58,0,1,0,4.58,4.58A4.58,4.58,0,0,0,64.93,43.24Zm0,7.27a2.69,2.69,0,1,1,2.69-2.69A2.69,2.69,0,0,1,64.93,50.51Z" fill="#878986" stroke="#878986" stroke-miterlimit="10"/><path d="M14.09,28.42H6.54a.95.95,0,1,0,0,1.89h7.55a.95.95,0,1,0,0-1.89Z" fill="#878986" stroke="#878986" stroke-miterlimit="10"/><rect x="5.83" y="13.64" width="11.35" height="7.96" rx="2.04" ry="2.04" fill="none" stroke="#51b0f9" stroke-miterlimit="10" stroke-width="3"/></g></g></svg>