<svg xmlns="http://www.w3.org/2000/svg" viewBox="0 0 79.3 65.76"><title>ico-2l</title><g id="Layer_2" data-name="Layer 2"><g id="Слой_25" data-name="Слой 25"><path d="M78.64,52a.94.94,0,0,0-.27-.26l-24-15.51a10.45,10.45,0,0,0-7-1.57L23,37.75l-8.2-5.81a5.15,5.15,0,0,0-6.13,0l0,0a5.14,5.14,0,0,0-6.12,8.26L28.74,61h0a5.1,5.1,0,0,0,3.8,1l22.39-3.79a5.27,5.27,0,0,1,3.58.8l14.86,6a.94.94,0,0,0,.51.15l.2,0a.94.94,0,0,0,.6-.41l4-11.78A1,1,0,0,0,78.64,52ZM13.74,33.47l7,5a5.11,5.11,0,0,0-1.14,1c-3.28-2-6.43-4.12-9.28-6.24A3.27,3.27,0,0,1,13.74,33.47ZM73.39,63,59.89,57.11a7.93,7.93,0,0,0-5.2-.73L32.3,60.17a3.24,3.24,0,0,1-2.42-.65h0L3.7,38.69a3.25,3.25,0,0,1,3.86-5.24l.54.4h0A125.64,125.64,0,0,0,18.61,41a5.13,5.13,0,0,0,5.45,7l5.9-.81c4.2,2,9.61,4.15,13.15,4.15a6.83,6.83,0,0,0,.95-.07h.18a3.92,3.92,0,0,0-1.11-7.77L23.81,46.11a3.25,3.25,0,0,1-.89-6.44l24.75-3.14a8.53,8.53,0,0,1,5.69,1.28l23.19,15Zm-30-17.67a2,2,0,1,1,.55,4h0c-1.93.32-5.64-.66-10.4-2.69Z" fill="#878986" stroke="#878986" stroke-miterlimit="10"/><path d="M37.1,30.37A14.93,14.93,0,1,0,22.17,15.43,14.95,14.95,0,0,0,37.1,30.37Zm0-28a13,13,0,1,1-13,13A13.06,13.06,0,0,1,37.1,2.39Z" fill="#51b0f9" stroke="#51b0f9" stroke-miterlimit="10"/><path d="M37.1,21.23a2.43,2.43,0,0,1-2.43-2.43.95.95,0,0,0-1.89,0A4.32,4.32,0,0,0,36.15,23v2.73a.95.95,0,0,0,1.89,0V23a4.31,4.31,0,0,0-.95-8.52,2.43,2.43,0,1,1,2.43-2.43.95.95,0,1,0,1.89,0A4.32,4.32,0,0,0,38,7.86V5.13a.95.95,0,1,0-1.89,0V7.86a4.31,4.31,0,0,0,.95,8.52,2.43,2.43,0,1,1,0,4.85Z" fill="#51b0f9" stroke="#51b0f9" stroke-miterlimit="10"/></g></g></svg>